<mxfile host="app.diagrams.net" agent="Mozilla/5.0 (Windows NT 10.0; Win64; x64) AppleWebKit/537.36 (KHTML, like Gecko) Chrome/128.0.0.0 Safari/537.36" version="24.7.14">
  <diagram name="Страница — 1" id="8BBsglMxp4hL4Y8rHRi4">
    <mxGraphModel dx="2266" dy="818" grid="1" gridSize="10" guides="1" tooltips="1" connect="1" arrows="1" fold="1" page="1" pageScale="1" pageWidth="1169" pageHeight="827" math="0" shadow="0">
      <root>
        <mxCell id="0" />
        <mxCell id="1" parent="0" />
        <mxCell id="A-__ORtodAGu_iR-pm1M-6" style="edgeStyle=orthogonalEdgeStyle;rounded=0;orthogonalLoop=1;jettySize=auto;html=1;exitX=1;exitY=0.25;exitDx=0;exitDy=0;entryX=0;entryY=0.5;entryDx=0;entryDy=0;shape=link;" edge="1" parent="1" source="A-__ORtodAGu_iR-pm1M-1" target="A-__ORtodAGu_iR-pm1M-3">
          <mxGeometry relative="1" as="geometry" />
        </mxCell>
        <mxCell id="A-__ORtodAGu_iR-pm1M-8" style="edgeStyle=orthogonalEdgeStyle;rounded=0;orthogonalLoop=1;jettySize=auto;html=1;exitX=1;exitY=0.75;exitDx=0;exitDy=0;entryX=0;entryY=0.5;entryDx=0;entryDy=0;shape=link;" edge="1" parent="1" source="A-__ORtodAGu_iR-pm1M-1" target="A-__ORtodAGu_iR-pm1M-4">
          <mxGeometry relative="1" as="geometry" />
        </mxCell>
        <mxCell id="A-__ORtodAGu_iR-pm1M-1" value="LCD&lt;br&gt;NON TOUCH" style="rounded=0;whiteSpace=wrap;html=1;fontSize=24;" vertex="1" parent="1">
          <mxGeometry x="280" y="200" width="240" height="120" as="geometry" />
        </mxCell>
        <mxCell id="A-__ORtodAGu_iR-pm1M-10" style="edgeStyle=orthogonalEdgeStyle;rounded=0;orthogonalLoop=1;jettySize=auto;html=1;exitX=1;exitY=0.5;exitDx=0;exitDy=0;entryX=0;entryY=0.5;entryDx=0;entryDy=0;shape=link;" edge="1" parent="1" source="A-__ORtodAGu_iR-pm1M-2" target="A-__ORtodAGu_iR-pm1M-5">
          <mxGeometry relative="1" as="geometry" />
        </mxCell>
        <mxCell id="A-__ORtodAGu_iR-pm1M-2" value="MECHANICAL KEYBOARD" style="rounded=0;whiteSpace=wrap;html=1;fontSize=24;" vertex="1" parent="1">
          <mxGeometry x="280" y="360" width="240" height="80" as="geometry" />
        </mxCell>
        <mxCell id="A-__ORtodAGu_iR-pm1M-3" value="HDMI" style="rounded=0;whiteSpace=wrap;html=1;" vertex="1" parent="1">
          <mxGeometry x="560" y="210" width="80" height="40" as="geometry" />
        </mxCell>
        <mxCell id="A-__ORtodAGu_iR-pm1M-4" value="USB_power" style="rounded=0;whiteSpace=wrap;html=1;" vertex="1" parent="1">
          <mxGeometry x="560" y="270" width="80" height="40" as="geometry" />
        </mxCell>
        <mxCell id="A-__ORtodAGu_iR-pm1M-42" style="edgeStyle=orthogonalEdgeStyle;rounded=0;orthogonalLoop=1;jettySize=auto;html=1;exitX=1;exitY=0.5;exitDx=0;exitDy=0;entryX=0;entryY=0.5;entryDx=0;entryDy=0;" edge="1" parent="1" source="A-__ORtodAGu_iR-pm1M-5" target="A-__ORtodAGu_iR-pm1M-35">
          <mxGeometry relative="1" as="geometry">
            <Array as="points">
              <mxPoint x="700" y="400" />
              <mxPoint x="700" y="270" />
            </Array>
          </mxGeometry>
        </mxCell>
        <mxCell id="A-__ORtodAGu_iR-pm1M-5" value="USB" style="rounded=0;whiteSpace=wrap;html=1;" vertex="1" parent="1">
          <mxGeometry x="560" y="380" width="80" height="40" as="geometry" />
        </mxCell>
        <mxCell id="A-__ORtodAGu_iR-pm1M-13" style="edgeStyle=orthogonalEdgeStyle;rounded=0;orthogonalLoop=1;jettySize=auto;html=1;exitX=1;exitY=0.5;exitDx=0;exitDy=0;entryX=0;entryY=0.5;entryDx=0;entryDy=0;shape=link;" edge="1" parent="1" source="A-__ORtodAGu_iR-pm1M-11" target="A-__ORtodAGu_iR-pm1M-12">
          <mxGeometry relative="1" as="geometry" />
        </mxCell>
        <mxCell id="A-__ORtodAGu_iR-pm1M-11" value="TRACKBALL" style="ellipse;whiteSpace=wrap;html=1;aspect=fixed;" vertex="1" parent="1">
          <mxGeometry x="440" y="450" width="80" height="80" as="geometry" />
        </mxCell>
        <mxCell id="A-__ORtodAGu_iR-pm1M-43" style="edgeStyle=orthogonalEdgeStyle;rounded=0;orthogonalLoop=1;jettySize=auto;html=1;exitX=1;exitY=0.5;exitDx=0;exitDy=0;entryX=0;entryY=0.5;entryDx=0;entryDy=0;" edge="1" parent="1" source="A-__ORtodAGu_iR-pm1M-12" target="A-__ORtodAGu_iR-pm1M-36">
          <mxGeometry relative="1" as="geometry">
            <Array as="points">
              <mxPoint x="720" y="490" />
              <mxPoint x="720" y="310" />
            </Array>
          </mxGeometry>
        </mxCell>
        <mxCell id="A-__ORtodAGu_iR-pm1M-12" value="USB" style="rounded=0;whiteSpace=wrap;html=1;" vertex="1" parent="1">
          <mxGeometry x="560" y="470" width="80" height="40" as="geometry" />
        </mxCell>
        <mxCell id="A-__ORtodAGu_iR-pm1M-30" style="edgeStyle=orthogonalEdgeStyle;rounded=0;orthogonalLoop=1;jettySize=auto;html=1;exitX=1;exitY=0.25;exitDx=0;exitDy=0;entryX=0;entryY=0.5;entryDx=0;entryDy=0;shape=link;" edge="1" parent="1" source="A-__ORtodAGu_iR-pm1M-14" target="A-__ORtodAGu_iR-pm1M-23">
          <mxGeometry relative="1" as="geometry" />
        </mxCell>
        <mxCell id="A-__ORtodAGu_iR-pm1M-31" style="edgeStyle=orthogonalEdgeStyle;rounded=0;orthogonalLoop=1;jettySize=auto;html=1;exitX=1;exitY=0.75;exitDx=0;exitDy=0;entryX=0;entryY=0.5;entryDx=0;entryDy=0;shape=link;" edge="1" parent="1" source="A-__ORtodAGu_iR-pm1M-14" target="A-__ORtodAGu_iR-pm1M-28">
          <mxGeometry relative="1" as="geometry" />
        </mxCell>
        <mxCell id="A-__ORtodAGu_iR-pm1M-14" value="POWER CELL" style="rounded=0;whiteSpace=wrap;html=1;fontSize=24;" vertex="1" parent="1">
          <mxGeometry x="80" y="580" width="440" height="230" as="geometry" />
        </mxCell>
        <mxCell id="A-__ORtodAGu_iR-pm1M-54" style="edgeStyle=orthogonalEdgeStyle;rounded=0;orthogonalLoop=1;jettySize=auto;html=1;exitX=1;exitY=0.5;exitDx=0;exitDy=0;entryX=0.5;entryY=1;entryDx=0;entryDy=0;strokeColor=#FF0000;" edge="1" parent="1" source="A-__ORtodAGu_iR-pm1M-22" target="A-__ORtodAGu_iR-pm1M-53">
          <mxGeometry relative="1" as="geometry" />
        </mxCell>
        <mxCell id="A-__ORtodAGu_iR-pm1M-22" value="" style="triangle;whiteSpace=wrap;html=1;" vertex="1" parent="1">
          <mxGeometry x="720" y="618" width="30" height="40" as="geometry" />
        </mxCell>
        <mxCell id="A-__ORtodAGu_iR-pm1M-23" value="5 volts" style="rounded=0;whiteSpace=wrap;html=1;" vertex="1" parent="1">
          <mxGeometry x="560" y="618" width="80" height="40" as="geometry" />
        </mxCell>
        <mxCell id="A-__ORtodAGu_iR-pm1M-24" value="USB-C" style="rounded=0;whiteSpace=wrap;html=1;" vertex="1" parent="1">
          <mxGeometry x="640" y="618" width="80" height="40" as="geometry" />
        </mxCell>
        <mxCell id="A-__ORtodAGu_iR-pm1M-27" value="" style="triangle;whiteSpace=wrap;html=1;rotation=-180;" vertex="1" parent="1">
          <mxGeometry x="720" y="732" width="30" height="40" as="geometry" />
        </mxCell>
        <mxCell id="A-__ORtodAGu_iR-pm1M-28" value="5 volts" style="rounded=0;whiteSpace=wrap;html=1;" vertex="1" parent="1">
          <mxGeometry x="560" y="732" width="80" height="40" as="geometry" />
        </mxCell>
        <mxCell id="A-__ORtodAGu_iR-pm1M-29" value="USB-C" style="rounded=0;whiteSpace=wrap;html=1;" vertex="1" parent="1">
          <mxGeometry x="640" y="732" width="80" height="40" as="geometry" />
        </mxCell>
        <mxCell id="A-__ORtodAGu_iR-pm1M-32" value="MINI PC" style="rounded=0;whiteSpace=wrap;html=1;fontSize=24;" vertex="1" parent="1">
          <mxGeometry x="1010" y="210" width="400" height="320" as="geometry" />
        </mxCell>
        <mxCell id="A-__ORtodAGu_iR-pm1M-38" style="edgeStyle=orthogonalEdgeStyle;rounded=0;orthogonalLoop=1;jettySize=auto;html=1;exitX=0;exitY=0.5;exitDx=0;exitDy=0;entryX=1;entryY=0.5;entryDx=0;entryDy=0;" edge="1" parent="1" source="A-__ORtodAGu_iR-pm1M-34" target="A-__ORtodAGu_iR-pm1M-3">
          <mxGeometry relative="1" as="geometry" />
        </mxCell>
        <mxCell id="A-__ORtodAGu_iR-pm1M-34" value="HDMI" style="rounded=0;whiteSpace=wrap;html=1;" vertex="1" parent="1">
          <mxGeometry x="930" y="210" width="80" height="40" as="geometry" />
        </mxCell>
        <mxCell id="A-__ORtodAGu_iR-pm1M-35" value="USB_1" style="rounded=0;whiteSpace=wrap;html=1;" vertex="1" parent="1">
          <mxGeometry x="930" y="250" width="80" height="40" as="geometry" />
        </mxCell>
        <mxCell id="A-__ORtodAGu_iR-pm1M-36" value="USB_2" style="rounded=0;whiteSpace=wrap;html=1;" vertex="1" parent="1">
          <mxGeometry x="930" y="290" width="80" height="40" as="geometry" />
        </mxCell>
        <mxCell id="A-__ORtodAGu_iR-pm1M-37" value="USB_3" style="rounded=0;whiteSpace=wrap;html=1;" vertex="1" parent="1">
          <mxGeometry x="930" y="330" width="80" height="40" as="geometry" />
        </mxCell>
        <mxCell id="A-__ORtodAGu_iR-pm1M-44" value="" style="triangle;whiteSpace=wrap;html=1;" vertex="1" parent="1">
          <mxGeometry x="1010" y="541" width="30" height="40" as="geometry" />
        </mxCell>
        <mxCell id="A-__ORtodAGu_iR-pm1M-45" value="??? volts" style="rounded=0;whiteSpace=wrap;html=1;fillColor=#f8cecc;strokeColor=#b85450;" vertex="1" parent="1">
          <mxGeometry x="1040" y="541" width="80" height="40" as="geometry" />
        </mxCell>
        <mxCell id="A-__ORtodAGu_iR-pm1M-47" style="edgeStyle=orthogonalEdgeStyle;rounded=0;orthogonalLoop=1;jettySize=auto;html=1;exitX=1;exitY=0.5;exitDx=0;exitDy=0;entryX=0.5;entryY=1;entryDx=0;entryDy=0;strokeColor=#FF0000;" edge="1" parent="1" source="A-__ORtodAGu_iR-pm1M-46" target="A-__ORtodAGu_iR-pm1M-32">
          <mxGeometry relative="1" as="geometry" />
        </mxCell>
        <mxCell id="A-__ORtodAGu_iR-pm1M-46" value="dc in???" style="rounded=0;whiteSpace=wrap;html=1;fillColor=#f8cecc;strokeColor=#b85450;" vertex="1" parent="1">
          <mxGeometry x="1120" y="541" width="80" height="40" as="geometry" />
        </mxCell>
        <mxCell id="A-__ORtodAGu_iR-pm1M-49" style="edgeStyle=orthogonalEdgeStyle;rounded=0;orthogonalLoop=1;jettySize=auto;html=1;exitX=1;exitY=0.5;exitDx=0;exitDy=0;entryX=0;entryY=0.5;entryDx=0;entryDy=0;strokeColor=#ff0000;" edge="1" parent="1" source="A-__ORtodAGu_iR-pm1M-48" target="A-__ORtodAGu_iR-pm1M-44">
          <mxGeometry relative="1" as="geometry" />
        </mxCell>
        <mxCell id="A-__ORtodAGu_iR-pm1M-48" value="dc-dc ???" style="rounded=0;whiteSpace=wrap;html=1;fillColor=#f8cecc;strokeColor=#b85450;" vertex="1" parent="1">
          <mxGeometry x="880" y="520" width="80" height="82" as="geometry" />
        </mxCell>
        <mxCell id="A-__ORtodAGu_iR-pm1M-51" value="" style="triangle;whiteSpace=wrap;html=1;rotation=-180;" vertex="1" parent="1">
          <mxGeometry x="750" y="732" width="30" height="40" as="geometry" />
        </mxCell>
        <mxCell id="A-__ORtodAGu_iR-pm1M-52" value="" style="triangle;whiteSpace=wrap;html=1;rotation=-180;" vertex="1" parent="1">
          <mxGeometry x="780" y="732" width="30" height="40" as="geometry" />
        </mxCell>
        <mxCell id="A-__ORtodAGu_iR-pm1M-56" style="edgeStyle=orthogonalEdgeStyle;rounded=0;orthogonalLoop=1;jettySize=auto;html=1;exitX=0.5;exitY=0;exitDx=0;exitDy=0;entryX=1;entryY=0.5;entryDx=0;entryDy=0;strokeColor=#ff0000;" edge="1" parent="1" source="A-__ORtodAGu_iR-pm1M-53" target="A-__ORtodAGu_iR-pm1M-4">
          <mxGeometry relative="1" as="geometry" />
        </mxCell>
        <mxCell id="A-__ORtodAGu_iR-pm1M-57" style="edgeStyle=orthogonalEdgeStyle;rounded=0;orthogonalLoop=1;jettySize=auto;html=1;exitX=1;exitY=0.5;exitDx=0;exitDy=0;entryX=0;entryY=0.5;entryDx=0;entryDy=0;strokeColor=#ff0000;" edge="1" parent="1" source="A-__ORtodAGu_iR-pm1M-53" target="A-__ORtodAGu_iR-pm1M-48">
          <mxGeometry relative="1" as="geometry" />
        </mxCell>
        <mxCell id="A-__ORtodAGu_iR-pm1M-53" value="pwr_hub ???" style="rounded=0;whiteSpace=wrap;html=1;fillColor=#f8cecc;strokeColor=#b85450;" vertex="1" parent="1">
          <mxGeometry x="750" y="521" width="80" height="80" as="geometry" />
        </mxCell>
      </root>
    </mxGraphModel>
  </diagram>
</mxfile>
